<?xml version="1.0" encoding="UTF-8" standalone="no"?>
<svg
   height="48"
   width="48"
   version="1.1"
   id="svg4"
   sodipodi:docname="mail.svg"
   inkscape:version="1.2.1 (9c6d41e410, 2022-07-14)"
   xmlns:inkscape="http://www.inkscape.org/namespaces/inkscape"
   xmlns:sodipodi="http://sodipodi.sourceforge.net/DTD/sodipodi-0.dtd"
   xmlns="http://www.w3.org/2000/svg"
   xmlns:svg="http://www.w3.org/2000/svg">
  <defs
     id="defs8" />
  <sodipodi:namedview
     id="namedview6"
     pagecolor="#ffffff"
     bordercolor="#000000"
     borderopacity="0.25"
     inkscape:showpageshadow="2"
     inkscape:pageopacity="0.0"
     inkscape:pagecheckerboard="0"
     inkscape:deskcolor="#d1d1d1"
     showgrid="false"
     inkscape:zoom="21.9375"
     inkscape:cx="19.054131"
     inkscape:cy="23.977208"
     inkscape:window-width="2560"
     inkscape:window-height="1334"
     inkscape:window-x="-11"
     inkscape:window-y="-11"
     inkscape:window-maximized="1"
     inkscape:current-layer="svg4" />
  <path
     d="M7.45 41.25q-1.95 0-3.325-1.375Q2.75 38.5 2.75 36.55v-25.1q0-1.95 1.375-3.35Q5.5 6.7 7.45 6.7h33.1q1.95 0 3.35 1.4 1.4 1.4 1.4 3.35v25.1q0 1.95-1.4 3.325-1.4 1.375-3.35 1.375Zm33.1-25.9L25.3 25.6q-.35.2-.65.3-.3.1-.65.1-.35 0-.65-.1-.3-.1-.65-.3L7.45 15.35v21.2h33.1Zm-16.55 7 16.35-10.9H7.7Zm-16.55-7v.5-2.75.05-1.7 1.7-.1 2.8-.5 21.2Z"
     id="path2"
     style="fill:#ffffff;fill-opacity:1" />
</svg>
