<?xml version="1.0" encoding="UTF-8" standalone="no"?>
<svg
   width="1026"
   height="1026"
   viewBox="0 0 10260 10260"
   version="1.1"
   sodipodi:docname="qr-code.svg"
   inkscape:version="1.2.1 (9c6d41e410, 2022-07-14)"
   id="svg5856"
   xmlns:inkscape="http://www.inkscape.org/namespaces/inkscape"
   xmlns:sodipodi="http://sodipodi.sourceforge.net/DTD/sodipodi-0.dtd"
   xmlns="http://www.w3.org/2000/svg"
   xmlns:svg="http://www.w3.org/2000/svg">
  <defs
     id="defs5414" />
  <sodipodi:namedview
     pagecolor="#ffffff"
     bordercolor="#000000"
     borderopacity="0.25"
     inkscape:showpageshadow="2"
     inkscape:pageopacity="0.0"
     inkscape:pagecheckerboard="0"
     inkscape:deskcolor="#d1d1d1"
     showgrid="false"
     inkscape:zoom="0.25657895"
     inkscape:cx="-1445.9487"
     inkscape:cy="155.89744"
     inkscape:window-width="2560"
     inkscape:window-height="1334"
     inkscape:window-x="-11"
     inkscape:window-y="-11"
     inkscape:window-maximized="1"
     inkscape:current-layer="svg5856"
     id="namedview5416"
     showguides="true" />
  <path
     id="path13277"
     style="fill:#000000;fill-opacity:1"
     d="M 3610.5664 406.58203 C 3520.1479 406.58203 3446.8555 479.87453 3446.8555 570.29297 C 3446.8555 660.71141 3520.1479 734.02344 3610.5664 734.02344 C 3700.9848 734.02344 3774.2969 660.71141 3774.2969 570.29297 C 3774.2969 479.87453 3700.9848 406.58203 3610.5664 406.58203 z M 3990.5664 406.58203 C 3900.148 406.58203 3826.8555 479.87453 3826.8555 570.29297 C 3826.8555 660.71142 3900.148 734.02344 3990.5664 734.02344 C 4080.9848 734.02344 4154.2969 660.71142 4154.2969 570.29297 C 4154.2969 479.87453 4080.9848 406.58203 3990.5664 406.58203 z M 5510.5664 406.58203 C 5420.148 406.58203 5346.8555 479.87451 5346.8555 570.29297 C 5346.8555 660.71143 5420.148 734.02344 5510.5664 734.02344 C 5600.9849 734.02344 5674.2773 660.71143 5674.2773 570.29297 C 5674.2773 479.87451 5600.9849 406.58203 5510.5664 406.58203 z M 6650.5664 406.58203 C 6560.148 406.58203 6486.8555 479.8745 6486.8555 570.29297 C 6486.8555 660.71143 6560.148 734.02344 6650.5664 734.02344 C 6740.9849 734.02344 6814.2773 660.71143 6814.2773 570.29297 C 6814.2773 479.8745 6740.9849 406.58203 6650.5664 406.58203 z M 5510.5664 786.58203 C 5420.148 786.58203 5346.8555 859.87451 5346.8555 950.29297 C 5346.8555 1040.7115 5420.148 1114.0234 5510.5664 1114.0234 C 5600.9849 1114.0234 5674.2773 1040.7115 5674.2773 950.29297 C 5674.2773 859.87451 5600.9849 786.58203 5510.5664 786.58203 z M 3610.5664 1166.582 C 3520.148 1166.582 3446.8555 1239.8746 3446.8555 1330.293 C 3446.8555 1420.7115 3520.148 1494.0234 3610.5664 1494.0234 C 3700.9849 1494.0234 3774.2969 1420.7115 3774.2969 1330.293 C 3774.2969 1239.8746 3700.9849 1166.582 3610.5664 1166.582 z M 4750.5664 1166.582 C 4660.1479 1166.582 4586.8555 1239.8746 4586.8555 1330.293 C 4586.8555 1420.7115 4660.1479 1494.0234 4750.5664 1494.0234 C 4840.9848 1494.0234 4914.2773 1420.7115 4914.2773 1330.293 C 4914.2773 1239.8746 4840.9848 1166.582 4750.5664 1166.582 z M 5130.5664 1166.582 C 5040.1479 1166.582 4966.8555 1239.8746 4966.8555 1330.293 C 4966.8555 1420.7115 5040.1479 1494.0234 5130.5664 1494.0234 C 5220.9848 1494.0234 5294.2773 1420.7115 5294.2773 1330.293 C 5294.2773 1239.8746 5220.9848 1166.582 5130.5664 1166.582 z M 5510.5664 1166.582 C 5420.1479 1166.582 5346.8555 1239.8745 5346.8555 1330.293 C 5346.8555 1420.7114 5420.1479 1494.0234 5510.5664 1494.0234 C 5600.9849 1494.0234 5674.2773 1420.7114 5674.2773 1330.293 C 5674.2773 1239.8745 5600.9849 1166.582 5510.5664 1166.582 z M 5890.5664 1166.582 C 5800.148 1166.582 5726.8555 1239.8745 5726.8555 1330.293 C 5726.8555 1420.7114 5800.148 1494.0234 5890.5664 1494.0234 C 5980.9849 1494.0234 6054.2773 1420.7114 6054.2773 1330.293 C 6054.2773 1239.8745 5980.9849 1166.582 5890.5664 1166.582 z M 6650.5664 1166.582 C 6560.148 1166.582 6486.8555 1239.8746 6486.8555 1330.293 C 6486.8555 1420.7115 6560.148 1494.0234 6650.5664 1494.0234 C 6740.9849 1494.0234 6814.2773 1420.7115 6814.2773 1330.293 C 6814.2773 1239.8746 6740.9849 1166.582 6650.5664 1166.582 z M 3610.5664 1546.582 C 3520.148 1546.582 3446.8555 1619.8745 3446.8555 1710.293 C 3446.8555 1800.7114 3520.148 1874.0234 3610.5664 1874.0234 C 3700.9849 1874.0234 3774.2969 1800.7114 3774.2969 1710.293 C 3774.2969 1619.8745 3700.9849 1546.582 3610.5664 1546.582 z M 3990.5664 1546.582 C 3900.148 1546.582 3826.8555 1619.8745 3826.8555 1710.293 C 3826.8555 1800.7114 3900.148 1874.0234 3990.5664 1874.0234 C 4080.9849 1874.0234 4154.2969 1800.7114 4154.2969 1710.293 C 4154.2969 1619.8745 4080.9849 1546.582 3990.5664 1546.582 z M 4750.5664 1546.582 C 4660.148 1546.582 4586.8555 1619.8746 4586.8555 1710.293 C 4586.8555 1800.7115 4660.148 1874.0234 4750.5664 1874.0234 C 4840.9849 1874.0234 4914.2773 1800.7115 4914.2773 1710.293 C 4914.2773 1619.8746 4840.9849 1546.582 4750.5664 1546.582 z M 5130.5664 1546.582 C 5040.148 1546.582 4966.8555 1619.8745 4966.8555 1710.293 C 4966.8555 1800.7114 5040.148 1874.0234 5130.5664 1874.0234 C 5220.9849 1874.0234 5294.2773 1800.7114 5294.2773 1710.293 C 5294.2773 1619.8745 5220.9849 1546.582 5130.5664 1546.582 z M 5510.5664 1546.582 C 5420.1479 1546.582 5346.8555 1619.8746 5346.8555 1710.293 C 5346.8555 1800.7115 5420.1479 1874.0234 5510.5664 1874.0234 C 5600.9848 1874.0234 5674.2773 1800.7115 5674.2773 1710.293 C 5674.2773 1619.8746 5600.9848 1546.582 5510.5664 1546.582 z M 5890.5664 1546.582 C 5800.1479 1546.582 5726.8555 1619.8745 5726.8555 1710.293 C 5726.8555 1800.7115 5800.1479 1874.0234 5890.5664 1874.0234 C 5980.9849 1874.0234 6054.2773 1800.7115 6054.2773 1710.293 C 6054.2773 1619.8745 5980.9849 1546.582 5890.5664 1546.582 z M 3610.5664 1926.582 C 3520.1479 1926.582 3446.8555 1999.8745 3446.8555 2090.293 C 3446.8555 2180.7114 3520.1479 2254.0234 3610.5664 2254.0234 C 3700.9848 2254.0234 3774.2969 2180.7114 3774.2969 2090.293 C 3774.2969 1999.8745 3700.9848 1926.582 3610.5664 1926.582 z M 3990.5664 1926.582 C 3900.148 1926.582 3826.8555 1999.8746 3826.8555 2090.293 C 3826.8555 2180.7115 3900.148 2254.0234 3990.5664 2254.0234 C 4080.9849 2254.0234 4154.2969 2180.7115 4154.2969 2090.293 C 4154.2969 1999.8746 4080.9849 1926.582 3990.5664 1926.582 z M 4370.5664 1926.582 C 4280.148 1926.582 4206.8555 1999.8745 4206.8555 2090.293 C 4206.8555 2180.7114 4280.148 2254.0234 4370.5664 2254.0234 C 4460.9849 2254.0234 4534.2773 2180.7114 4534.2773 2090.293 C 4534.2773 1999.8745 4460.9849 1926.582 4370.5664 1926.582 z M 4750.5664 1926.582 C 4660.1479 1926.582 4586.8555 1999.8745 4586.8555 2090.293 C 4586.8555 2180.7115 4660.1479 2254.0234 4750.5664 2254.0234 C 4840.9848 2254.0234 4914.2773 2180.7115 4914.2773 2090.293 C 4914.2773 1999.8745 4840.9848 1926.582 4750.5664 1926.582 z M 5510.5664 1926.582 C 5420.148 1926.582 5346.8555 1999.8745 5346.8555 2090.293 C 5346.8555 2180.7115 5420.148 2254.0234 5510.5664 2254.0234 C 5600.9849 2254.0234 5674.2773 2180.7115 5674.2773 2090.293 C 5674.2773 1999.8745 5600.9849 1926.582 5510.5664 1926.582 z M 5890.5664 1926.582 C 5800.1479 1926.582 5726.8555 1999.8745 5726.8555 2090.293 C 5726.8555 2180.7114 5800.1479 2254.0234 5890.5664 2254.0234 C 5980.9848 2254.0234 6054.2773 2180.7114 6054.2773 2090.293 C 6054.2773 1999.8745 5980.9848 1926.582 5890.5664 1926.582 z M 6270.5664 1926.582 C 6180.148 1926.582 6106.8555 1999.8746 6106.8555 2090.293 C 6106.8555 2180.7115 6180.148 2254.0234 6270.5664 2254.0234 C 6360.9849 2254.0234 6434.2773 2180.7115 6434.2773 2090.293 C 6434.2773 1999.8746 6360.9849 1926.582 6270.5664 1926.582 z M 6650.5664 1926.582 C 6560.1479 1926.582 6486.8555 1999.8745 6486.8555 2090.293 C 6486.8555 2180.7115 6560.1479 2254.0234 6650.5664 2254.0234 C 6740.9848 2254.0234 6814.2773 2180.7115 6814.2773 2090.293 C 6814.2773 1999.8745 6740.9848 1926.582 6650.5664 1926.582 z M 3990.5664 2306.582 C 3900.1479 2306.582 3826.8555 2379.8746 3826.8555 2470.293 C 3826.8555 2560.7115 3900.1479 2634.0234 3990.5664 2634.0234 C 4080.9849 2634.0234 4154.2773 2560.7115 4154.2773 2470.293 C 4154.2773 2379.8746 4080.9849 2306.582 3990.5664 2306.582 z M 5130.5664 2306.582 C 5040.148 2306.582 4966.8555 2379.8745 4966.8555 2470.293 C 4966.8555 2560.7115 5040.148 2634.0234 5130.5664 2634.0234 C 5220.9849 2634.0234 5294.2773 2560.7115 5294.2773 2470.293 C 5294.2773 2379.8745 5220.9849 2306.582 5130.5664 2306.582 z M 5510.5664 2306.582 C 5420.1479 2306.582 5346.8555 2379.8746 5346.8555 2470.293 C 5346.8555 2560.7115 5420.1479 2634.0234 5510.5664 2634.0234 C 5600.9848 2634.0234 5674.2773 2560.7115 5674.2773 2470.293 C 5674.2773 2379.8746 5600.9848 2306.582 5510.5664 2306.582 z M 5890.5664 2306.582 C 5800.148 2306.582 5726.8555 2379.8745 5726.8555 2470.293 C 5726.8555 2560.7115 5800.148 2634.0234 5890.5664 2634.0234 C 5980.9849 2634.0234 6054.2773 2560.7115 6054.2773 2470.293 C 6054.2773 2379.8745 5980.9849 2306.582 5890.5664 2306.582 z M 3610.5664 2686.582 C 3520.148 2686.582 3446.8555 2759.894 3446.8555 2850.3125 C 3446.8555 2940.7309 3520.148 3014.0234 3610.5664 3014.0234 C 3700.9849 3014.0234 3774.2773 2940.7309 3774.2773 2850.3125 C 3774.2773 2759.894 3700.9849 2686.582 3610.5664 2686.582 z M 4370.5664 2686.582 C 4280.1479 2686.582 4206.8555 2759.8745 4206.8555 2850.293 C 4206.8555 2940.7114 4280.1479 3014.0234 4370.5664 3014.0234 C 4460.9848 3014.0234 4534.2773 2940.7114 4534.2773 2850.293 C 4534.2773 2759.8745 4460.9848 2686.582 4370.5664 2686.582 z M 5130.5664 2686.582 C 5040.1479 2686.582 4966.8555 2759.8746 4966.8555 2850.293 C 4966.8555 2940.7115 5040.1479 3014.0234 5130.5664 3014.0234 C 5220.9848 3014.0234 5294.2773 2940.7115 5294.2773 2850.293 C 5294.2773 2759.8746 5220.9848 2686.582 5130.5664 2686.582 z M 5890.5664 2686.582 C 5800.1479 2686.582 5726.8555 2759.8746 5726.8555 2850.293 C 5726.8555 2940.7115 5800.1479 3014.0234 5890.5664 3014.0234 C 5980.9849 3014.0234 6054.2773 2940.7115 6054.2773 2850.293 C 6054.2773 2759.8746 5980.9849 2686.582 5890.5664 2686.582 z M 6650.5664 2686.582 C 6560.148 2686.582 6486.8555 2759.8745 6486.8555 2850.293 C 6486.8555 2940.7114 6560.148 3014.0234 6650.5664 3014.0234 C 6740.9849 3014.0234 6814.2773 2940.7114 6814.2773 2850.293 C 6814.2773 2759.8745 6740.9849 2686.582 6650.5664 2686.582 z M 3990.5664 3066.582 C 3900.1479 3066.582 3826.8555 3139.8745 3826.8555 3230.293 C 3826.8555 3320.7115 3900.1479 3394.0234 3990.5664 3394.0234 C 4080.9849 3394.0234 4154.2773 3320.7115 4154.2773 3230.293 C 4154.2773 3139.8745 4080.9849 3066.582 3990.5664 3066.582 z M 5130.5664 3066.582 C 5040.1479 3066.582 4966.8555 3139.8745 4966.8555 3230.293 C 4966.8555 3320.7114 5040.1479 3394.0234 5130.5664 3394.0234 C 5220.9849 3394.0234 5294.2773 3320.7114 5294.2773 3230.293 C 5294.2773 3139.8745 5220.9849 3066.582 5130.5664 3066.582 z M 6650.5664 3066.582 C 6560.1479 3066.582 6486.8555 3139.8745 6486.8555 3230.293 C 6486.8555 3320.7115 6560.1479 3394.0234 6650.5664 3394.0234 C 6740.9848 3394.0234 6814.2773 3320.7115 6814.2773 3230.293 C 6814.2773 3139.8745 6740.9848 3066.582 6650.5664 3066.582 z M 570.56641 3446.582 C 480.1479 3446.582 406.85547 3519.894 406.85547 3610.3125 C 406.85547 3700.731 480.1479 3774.0234 570.56641 3774.0234 C 660.98491 3774.0234 734.27734 3700.731 734.27734 3610.3125 C 734.27734 3519.894 660.98491 3446.582 570.56641 3446.582 z M 950.56641 3446.582 C 860.14791 3446.582 786.85547 3519.894 786.85547 3610.3125 C 786.85547 3700.731 860.14791 3774.0234 950.56641 3774.0234 C 1040.9849 3774.0234 1114.2773 3700.731 1114.2773 3610.3125 C 1114.2773 3519.894 1040.9849 3446.582 950.56641 3446.582 z M 1330.5664 3446.582 C 1240.1479 3446.582 1166.8555 3519.894 1166.8555 3610.3125 C 1166.8555 3700.7309 1240.1479 3774.0234 1330.5664 3774.0234 C 1420.9849 3774.0234 1494.2773 3700.7309 1494.2773 3610.3125 C 1494.2773 3519.894 1420.9849 3446.582 1330.5664 3446.582 z M 1710.5664 3446.582 C 1620.1479 3446.582 1546.8555 3519.8941 1546.8555 3610.3125 C 1546.8555 3700.731 1620.1479 3774.0234 1710.5664 3774.0234 C 1800.9849 3774.0234 1874.2773 3700.731 1874.2773 3610.3125 C 1874.2773 3519.8941 1800.9849 3446.582 1710.5664 3446.582 z M 2850.5664 3446.582 C 2760.1479 3446.582 2686.8555 3519.894 2686.8555 3610.3125 C 2686.8555 3700.731 2760.1479 3774.0234 2850.5664 3774.0234 C 2940.9849 3774.0234 3014.2773 3700.731 3014.2773 3610.3125 C 3014.2773 3519.894 2940.9849 3446.582 2850.5664 3446.582 z M 3610.5664 3446.582 C 3520.1479 3446.582 3446.8555 3519.894 3446.8555 3610.3125 C 3446.8555 3700.731 3520.1479 3774.0234 3610.5664 3774.0234 C 3700.9849 3774.0234 3774.2773 3700.731 3774.2773 3610.3125 C 3774.2773 3519.894 3700.9849 3446.582 3610.5664 3446.582 z M 4750.5664 3446.582 C 4660.1479 3446.582 4586.8555 3519.8745 4586.8555 3610.293 C 4586.8555 3700.7114 4660.1479 3774.0234 4750.5664 3774.0234 C 4840.9848 3774.0234 4914.2773 3700.7114 4914.2773 3610.293 C 4914.2773 3519.8745 4840.9848 3446.582 4750.5664 3446.582 z M 5890.5664 3446.582 C 5800.1479 3446.582 5726.8555 3519.8745 5726.8555 3610.293 C 5726.8555 3700.7115 5800.1479 3774.0234 5890.5664 3774.0234 C 5980.9849 3774.0234 6054.2773 3700.7115 6054.2773 3610.293 C 6054.2773 3519.8745 5980.9849 3446.582 5890.5664 3446.582 z M 6270.5664 3446.582 C 6180.1479 3446.582 6106.8555 3519.8745 6106.8555 3610.293 C 6106.8555 3700.7114 6180.1479 3774.0234 6270.5664 3774.0234 C 6360.9848 3774.0234 6434.2773 3700.7114 6434.2773 3610.293 C 6434.2773 3519.8745 6360.9848 3446.582 6270.5664 3446.582 z M 6650.5664 3446.582 C 6560.148 3446.582 6486.8555 3519.8746 6486.8555 3610.293 C 6486.8555 3700.7115 6560.148 3774.0234 6650.5664 3774.0234 C 6740.9849 3774.0234 6814.2773 3700.7115 6814.2773 3610.293 C 6814.2773 3519.8746 6740.9849 3446.582 6650.5664 3446.582 z M 7030.5664 3446.582 C 6940.148 3446.582 6866.8555 3519.8745 6866.8555 3610.293 C 6866.8555 3700.7115 6940.148 3774.0234 7030.5664 3774.0234 C 7120.9849 3774.0234 7194.2773 3700.7115 7194.2773 3610.293 C 7194.2773 3519.8745 7120.9849 3446.582 7030.5664 3446.582 z M 8170.5664 3446.582 C 8080.1479 3446.582 8006.8555 3519.8746 8006.8555 3610.293 C 8006.8555 3700.7115 8080.1479 3774.0234 8170.5664 3774.0234 C 8260.9848 3774.0234 8334.2773 3700.7115 8334.2773 3610.293 C 8334.2773 3519.8746 8260.9848 3446.582 8170.5664 3446.582 z M 8550.5664 3446.582 C 8460.148 3446.582 8386.8555 3519.8745 8386.8555 3610.293 C 8386.8555 3700.7115 8460.148 3774.0234 8550.5664 3774.0234 C 8640.9849 3774.0234 8714.2773 3700.7115 8714.2773 3610.293 C 8714.2773 3519.8745 8640.9849 3446.582 8550.5664 3446.582 z M 8930.5664 3446.582 C 8840.1479 3446.582 8766.8555 3519.8745 8766.8555 3610.293 C 8766.8555 3700.7115 8840.1479 3774.0234 8930.5664 3774.0234 C 9020.9849 3774.0234 9094.2773 3700.7115 9094.2773 3610.293 C 9094.2773 3519.8745 9020.9849 3446.582 8930.5664 3446.582 z M 9690.5664 3446.582 C 9600.1479 3446.582 9526.8555 3519.8745 9526.8555 3610.293 C 9526.8555 3700.7114 9600.1479 3774.0234 9690.5664 3774.0234 C 9780.9848 3774.0234 9854.2773 3700.7114 9854.2773 3610.293 C 9854.2773 3519.8745 9780.9848 3446.582 9690.5664 3446.582 z M 950.56641 3826.582 C 860.14791 3826.582 786.85547 3899.894 786.85547 3990.3125 C 786.85547 4080.731 860.14791 4154.0234 950.56641 4154.0234 C 1040.9849 4154.0234 1114.2773 4080.731 1114.2773 3990.3125 C 1114.2773 3899.894 1040.9849 3826.582 950.56641 3826.582 z M 2090.5664 3826.582 C 2000.1479 3826.582 1926.8555 3899.894 1926.8555 3990.3125 C 1926.8555 4080.7309 2000.1479 4154.0234 2090.5664 4154.0234 C 2180.9848 4154.0234 2254.2773 4080.7309 2254.2773 3990.3125 C 2254.2773 3899.894 2180.9848 3826.582 2090.5664 3826.582 z M 2470.5664 3826.582 C 2380.1479 3826.582 2306.8555 3899.894 2306.8555 3990.3125 C 2306.8555 4080.7309 2380.1479 4154.0234 2470.5664 4154.0234 C 2560.9849 4154.0234 2634.2773 4080.7309 2634.2773 3990.3125 C 2634.2773 3899.894 2560.9849 3826.582 2470.5664 3826.582 z M 3230.5664 3826.582 C 3140.1479 3826.582 3066.8555 3899.894 3066.8555 3990.3125 C 3066.8555 4080.7309 3140.1479 4154.0234 3230.5664 4154.0234 C 3320.9849 4154.0234 3394.2773 4080.7309 3394.2773 3990.3125 C 3394.2773 3899.894 3320.9849 3826.582 3230.5664 3826.582 z M 3990.5664 3826.582 C 3900.1479 3826.582 3826.8555 3899.8745 3826.8555 3990.293 C 3826.8555 4080.7115 3900.1479 4154.0234 3990.5664 4154.0234 C 4080.9849 4154.0234 4154.2773 4080.7115 4154.2773 3990.293 C 4154.2773 3899.8745 4080.9849 3826.582 3990.5664 3826.582 z M 4750.5664 3826.582 C 4660.1479 3826.582 4586.8555 3899.8745 4586.8555 3990.293 C 4586.8555 4080.7114 4660.1479 4154.0234 4750.5664 4154.0234 C 4840.9849 4154.0234 4914.2773 4080.7114 4914.2773 3990.293 C 4914.2773 3899.8745 4840.9849 3826.582 4750.5664 3826.582 z M 5130.5664 3826.582 C 5040.1479 3826.582 4966.8555 3899.8745 4966.8555 3990.293 C 4966.8555 4080.7115 5040.1479 4154.0234 5130.5664 4154.0234 C 5220.9849 4154.0234 5294.2773 4080.7115 5294.2773 3990.293 C 5294.2773 3899.8745 5220.9849 3826.582 5130.5664 3826.582 z M 7030.5664 3826.582 C 6940.1479 3826.582 6866.8555 3899.8745 6866.8555 3990.293 C 6866.8555 4080.7115 6940.1479 4154.0234 7030.5664 4154.0234 C 7120.9849 4154.0234 7194.2773 4080.7115 7194.2773 3990.293 C 7194.2773 3899.8745 7120.9849 3826.582 7030.5664 3826.582 z M 7790.5664 3826.582 C 7700.1479 3826.582 7626.8555 3899.8745 7626.8555 3990.293 C 7626.8555 4080.7114 7700.1479 4154.0234 7790.5664 4154.0234 C 7880.9848 4154.0234 7954.2773 4080.7114 7954.2773 3990.293 C 7954.2773 3899.8745 7880.9848 3826.582 7790.5664 3826.582 z M 9310.5664 3826.582 C 9220.1479 3826.582 9146.8555 3899.8745 9146.8555 3990.293 C 9146.8555 4080.7115 9220.1479 4154.0234 9310.5664 4154.0234 C 9400.9848 4154.0234 9474.2773 4080.7115 9474.2773 3990.293 C 9474.2773 3899.8745 9400.9848 3826.582 9310.5664 3826.582 z M 1710.5664 4206.582 C 1620.1479 4206.582 1546.8555 4279.894 1546.8555 4370.3125 C 1546.8555 4460.7309 1620.1479 4534.0234 1710.5664 4534.0234 C 1800.9849 4534.0234 1874.2773 4460.7309 1874.2773 4370.3125 C 1874.2773 4279.894 1800.9849 4206.582 1710.5664 4206.582 z M 2470.5664 4206.582 C 2380.1479 4206.582 2306.8555 4279.894 2306.8555 4370.3125 C 2306.8555 4460.731 2380.1479 4534.0234 2470.5664 4534.0234 C 2560.9849 4534.0234 2634.2773 4460.731 2634.2773 4370.3125 C 2634.2773 4279.894 2560.9849 4206.582 2470.5664 4206.582 z M 2850.5664 4206.582 C 2760.1479 4206.582 2686.8555 4279.894 2686.8555 4370.3125 C 2686.8555 4460.731 2760.1479 4534.0234 2850.5664 4534.0234 C 2940.9849 4534.0234 3014.2773 4460.731 3014.2773 4370.3125 C 3014.2773 4279.894 2940.9849 4206.582 2850.5664 4206.582 z M 4750.5664 4206.582 C 4660.148 4206.582 4586.8555 4279.8745 4586.8555 4370.293 C 4586.8555 4460.7115 4660.148 4534.0234 4750.5664 4534.0234 C 4840.9849 4534.0234 4914.2773 4460.7115 4914.2773 4370.293 C 4914.2773 4279.8745 4840.9849 4206.582 4750.5664 4206.582 z M 6650.5664 4206.582 C 6560.1479 4206.582 6486.8555 4279.8745 6486.8555 4370.293 C 6486.8555 4460.7114 6560.1479 4534.0234 6650.5664 4534.0234 C 6740.9848 4534.0234 6814.2773 4460.7114 6814.2773 4370.293 C 6814.2773 4279.8745 6740.9848 4206.582 6650.5664 4206.582 z M 7790.5664 4206.582 C 7700.148 4206.582 7626.8555 4279.8745 7626.8555 4370.293 C 7626.8555 4460.7114 7700.148 4534.0234 7790.5664 4534.0234 C 7880.9849 4534.0234 7954.2773 4460.7114 7954.2773 4370.293 C 7954.2773 4279.8745 7880.9849 4206.582 7790.5664 4206.582 z M 570.56641 4586.582 C 480.14791 4586.582 406.85547 4659.894 406.85547 4750.3125 C 406.85547 4840.731 480.14791 4914.0234 570.56641 4914.0234 C 660.98492 4914.0234 734.27734 4840.731 734.27734 4750.3125 C 734.27734 4659.894 660.98492 4586.582 570.56641 4586.582 z M 1330.5664 4586.582 C 1240.1479 4586.582 1166.8555 4659.894 1166.8555 4750.3125 C 1166.8555 4840.731 1240.1479 4914.0234 1330.5664 4914.0234 C 1420.9849 4914.0234 1494.2773 4840.731 1494.2773 4750.3125 C 1494.2773 4659.894 1420.9849 4586.582 1330.5664 4586.582 z M 1710.5664 4586.582 C 1620.1479 4586.582 1546.8555 4659.894 1546.8555 4750.3125 C 1546.8555 4840.731 1620.1479 4914.0234 1710.5664 4914.0234 C 1800.9849 4914.0234 1874.2773 4840.731 1874.2773 4750.3125 C 1874.2773 4659.894 1800.9849 4586.582 1710.5664 4586.582 z M 2090.5664 4586.582 C 2000.1479 4586.582 1926.8555 4659.894 1926.8555 4750.3125 C 1926.8555 4840.731 2000.1479 4914.0234 2090.5664 4914.0234 C 2180.9849 4914.0234 2254.2773 4840.731 2254.2773 4750.3125 C 2254.2773 4659.894 2180.9849 4586.582 2090.5664 4586.582 z M 2470.5664 4586.582 C 2380.148 4586.582 2306.8555 4659.894 2306.8555 4750.3125 C 2306.8555 4840.7309 2380.148 4914.0234 2470.5664 4914.0234 C 2560.9849 4914.0234 2634.2773 4840.7309 2634.2773 4750.3125 C 2634.2773 4659.894 2560.9849 4586.582 2470.5664 4586.582 z M 3230.5664 4586.582 C 3140.148 4586.582 3066.8555 4659.894 3066.8555 4750.3125 C 3066.8555 4840.731 3140.148 4914.0234 3230.5664 4914.0234 C 3320.9849 4914.0234 3394.2773 4840.731 3394.2773 4750.3125 C 3394.2773 4659.894 3320.9849 4586.582 3230.5664 4586.582 z M 5130.5664 4586.582 C 5040.1479 4586.582 4966.8555 4659.8746 4966.8555 4750.293 C 4966.8555 4840.7115 5040.1479 4914.0234 5130.5664 4914.0234 C 5220.9849 4914.0234 5294.2773 4840.7115 5294.2773 4750.293 C 5294.2773 4659.8746 5220.9849 4586.582 5130.5664 4586.582 z M 5510.5664 4586.582 C 5420.1479 4586.582 5346.8555 4659.8745 5346.8555 4750.293 C 5346.8555 4840.7115 5420.1479 4914.0234 5510.5664 4914.0234 C 5600.9848 4914.0234 5674.2773 4840.7115 5674.2773 4750.293 C 5674.2773 4659.8745 5600.9848 4586.582 5510.5664 4586.582 z M 5890.5664 4586.582 C 5800.1479 4586.582 5726.8555 4659.8746 5726.8555 4750.293 C 5726.8555 4840.7115 5800.1479 4914.0234 5890.5664 4914.0234 C 5980.9848 4914.0234 6054.2773 4840.7115 6054.2773 4750.293 C 6054.2773 4659.8746 5980.9848 4586.582 5890.5664 4586.582 z M 6270.5664 4586.582 C 6180.1479 4586.582 6106.8555 4659.8745 6106.8555 4750.293 C 6106.8555 4840.7115 6180.1479 4914.0234 6270.5664 4914.0234 C 6360.9848 4914.0234 6434.2773 4840.7115 6434.2773 4750.293 C 6434.2773 4659.8745 6360.9848 4586.582 6270.5664 4586.582 z M 7030.5664 4586.582 C 6940.148 4586.582 6866.8555 4659.8746 6866.8555 4750.293 C 6866.8555 4840.7115 6940.148 4914.0234 7030.5664 4914.0234 C 7120.9849 4914.0234 7194.2773 4840.7115 7194.2773 4750.293 C 7194.2773 4659.8746 7120.9849 4586.582 7030.5664 4586.582 z M 7410.5664 4586.582 C 7320.1479 4586.582 7246.8555 4659.8745 7246.8555 4750.293 C 7246.8555 4840.7115 7320.1479 4914.0234 7410.5664 4914.0234 C 7500.9849 4914.0234 7574.2773 4840.7115 7574.2773 4750.293 C 7574.2773 4659.8745 7500.9849 4586.582 7410.5664 4586.582 z M 8550.5664 4586.582 C 8460.1479 4586.582 8386.8555 4659.8745 8386.8555 4750.293 C 8386.8555 4840.7114 8460.1479 4914.0234 8550.5664 4914.0234 C 8640.9848 4914.0234 8714.2773 4840.7114 8714.2773 4750.293 C 8714.2773 4659.8745 8640.9848 4586.582 8550.5664 4586.582 z M 8930.5664 4586.582 C 8840.1479 4586.582 8766.8555 4659.8746 8766.8555 4750.293 C 8766.8555 4840.7115 8840.1479 4914.0234 8930.5664 4914.0234 C 9020.9848 4914.0234 9094.2773 4840.7115 9094.2773 4750.293 C 9094.2773 4659.8746 9020.9848 4586.582 8930.5664 4586.582 z M 570.56641 4966.582 C 480.14791 4966.582 406.85547 5039.894 406.85547 5130.3125 C 406.85547 5220.731 480.14791 5294.0234 570.56641 5294.0234 C 660.98491 5294.0234 734.27734 5220.731 734.27734 5130.3125 C 734.27734 5039.894 660.98491 4966.582 570.56641 4966.582 z M 950.56641 4966.582 C 860.14791 4966.582 786.85547 5039.894 786.85547 5130.3125 C 786.85547 5220.731 860.14791 5294.0234 950.56641 5294.0234 C 1040.9849 5294.0234 1114.2773 5220.731 1114.2773 5130.3125 C 1114.2773 5039.894 1040.9849 4966.582 950.56641 4966.582 z M 1330.5664 4966.582 C 1240.1479 4966.582 1166.8555 5039.894 1166.8555 5130.3125 C 1166.8555 5220.731 1240.1479 5294.0234 1330.5664 5294.0234 C 1420.9849 5294.0234 1494.2773 5220.731 1494.2773 5130.3125 C 1494.2773 5039.894 1420.9849 4966.582 1330.5664 4966.582 z M 2850.5664 4966.582 C 2760.1479 4966.582 2686.8555 5039.8941 2686.8555 5130.3125 C 2686.8555 5220.731 2760.1479 5294.0234 2850.5664 5294.0234 C 2940.9849 5294.0234 3014.2773 5220.731 3014.2773 5130.3125 C 3014.2773 5039.8941 2940.9849 4966.582 2850.5664 4966.582 z M 3230.5664 4966.582 C 3140.1479 4966.582 3066.8555 5039.894 3066.8555 5130.3125 C 3066.8555 5220.731 3140.1479 5294.0234 3230.5664 5294.0234 C 3320.9848 5294.0234 3394.2773 5220.731 3394.2773 5130.3125 C 3394.2773 5039.894 3320.9848 4966.582 3230.5664 4966.582 z M 3610.5664 4966.582 C 3520.1479 4966.582 3446.8555 5039.8746 3446.8555 5130.293 C 3446.8555 5220.7115 3520.1479 5294.0234 3610.5664 5294.0234 C 3700.9849 5294.0234 3774.2773 5220.7115 3774.2773 5130.293 C 3774.2773 5039.8746 3700.9849 4966.582 3610.5664 4966.582 z M 3990.5664 4966.582 C 3900.1479 4966.582 3826.8555 5039.8745 3826.8555 5130.293 C 3826.8555 5220.7115 3900.1479 5294.0234 3990.5664 5294.0234 C 4080.9849 5294.0234 4154.2773 5220.7115 4154.2773 5130.293 C 4154.2773 5039.8745 4080.9849 4966.582 3990.5664 4966.582 z M 4750.5664 4966.582 C 4660.148 4966.582 4586.8555 5039.8745 4586.8555 5130.293 C 4586.8555 5220.7115 4660.148 5294.0234 4750.5664 5294.0234 C 4840.9849 5294.0234 4914.2773 5220.7115 4914.2773 5130.293 C 4914.2773 5039.8745 4840.9849 4966.582 4750.5664 4966.582 z M 5130.5664 4966.582 C 5040.148 4966.582 4966.8555 5039.8746 4966.8555 5130.293 C 4966.8555 5220.7115 5040.148 5294.0234 5130.5664 5294.0234 C 5220.9849 5294.0234 5294.2773 5220.7115 5294.2773 5130.293 C 5294.2773 5039.8746 5220.9849 4966.582 5130.5664 4966.582 z M 5510.5664 4966.582 C 5420.148 4966.582 5346.8555 5039.8745 5346.8555 5130.293 C 5346.8555 5220.7115 5420.148 5294.0234 5510.5664 5294.0234 C 5600.9849 5294.0234 5674.2773 5220.7115 5674.2773 5130.293 C 5674.2773 5039.8745 5600.9849 4966.582 5510.5664 4966.582 z M 5890.5664 4966.582 C 5800.148 4966.582 5726.8555 5039.8745 5726.8555 5130.293 C 5726.8555 5220.7114 5800.148 5294.0234 5890.5664 5294.0234 C 5980.9849 5294.0234 6054.2773 5220.7114 6054.2773 5130.293 C 6054.2773 5039.8745 5980.9849 4966.582 5890.5664 4966.582 z M 6270.5664 4966.582 C 6180.1479 4966.582 6106.8555 5039.8745 6106.8555 5130.293 C 6106.8555 5220.7115 6180.1479 5294.0234 6270.5664 5294.0234 C 6360.9849 5294.0234 6434.2773 5220.7115 6434.2773 5130.293 C 6434.2773 5039.8745 6360.9849 4966.582 6270.5664 4966.582 z M 6650.5664 4966.582 C 6560.1479 4966.582 6486.8555 5039.8745 6486.8555 5130.293 C 6486.8555 5220.7115 6560.1479 5294.0234 6650.5664 5294.0234 C 6740.9849 5294.0234 6814.2773 5220.7115 6814.2773 5130.293 C 6814.2773 5039.8745 6740.9849 4966.582 6650.5664 4966.582 z M 7030.5664 4966.582 C 6940.1479 4966.582 6866.8555 5039.8745 6866.8555 5130.293 C 6866.8555 5220.7114 6940.1479 5294.0234 7030.5664 5294.0234 C 7120.9849 5294.0234 7194.2773 5220.7114 7194.2773 5130.293 C 7194.2773 5039.8745 7120.9849 4966.582 7030.5664 4966.582 z M 7410.5664 4966.582 C 7320.1479 4966.582 7246.8555 5039.8746 7246.8555 5130.293 C 7246.8555 5220.7115 7320.1479 5294.0234 7410.5664 5294.0234 C 7500.9849 5294.0234 7574.2773 5220.7115 7574.2773 5130.293 C 7574.2773 5039.8746 7500.9849 4966.582 7410.5664 4966.582 z M 7790.5664 4966.582 C 7700.1479 4966.582 7626.8555 5039.8745 7626.8555 5130.293 C 7626.8555 5220.7115 7700.1479 5294.0234 7790.5664 5294.0234 C 7880.9848 5294.0234 7954.2773 5220.7115 7954.2773 5130.293 C 7954.2773 5039.8745 7880.9848 4966.582 7790.5664 4966.582 z M 8170.5664 4966.582 C 8080.1479 4966.582 8006.8555 5039.8745 8006.8555 5130.293 C 8006.8555 5220.7115 8080.1479 5294.0234 8170.5664 5294.0234 C 8260.9848 5294.0234 8334.2773 5220.7115 8334.2773 5130.293 C 8334.2773 5039.8745 8260.9848 4966.582 8170.5664 4966.582 z M 8930.5664 4966.582 C 8840.148 4966.582 8766.8555 5039.8746 8766.8555 5130.293 C 8766.8555 5220.7115 8840.148 5294.0234 8930.5664 5294.0234 C 9020.9849 5294.0234 9094.2773 5220.7115 9094.2773 5130.293 C 9094.2773 5039.8746 9020.9849 4966.582 8930.5664 4966.582 z M 9310.5664 4966.582 C 9220.148 4966.582 9146.8555 5039.8746 9146.8555 5130.293 C 9146.8555 5220.7115 9220.148 5294.0234 9310.5664 5294.0234 C 9400.9849 5294.0234 9474.2773 5220.7115 9474.2773 5130.293 C 9474.2773 5039.8746 9400.9849 4966.582 9310.5664 4966.582 z M 9690.5664 4966.582 C 9600.1479 4966.582 9526.8555 5039.8745 9526.8555 5130.293 C 9526.8555 5220.7115 9600.1479 5294.0234 9690.5664 5294.0234 C 9780.9849 5294.0234 9854.2773 5220.7115 9854.2773 5130.293 C 9854.2773 5039.8745 9780.9849 4966.582 9690.5664 4966.582 z M 950.56641 5346.582 C 860.14791 5346.582 786.85547 5419.894 786.85547 5510.3125 C 786.85547 5600.731 860.14791 5674.0234 950.56641 5674.0234 C 1040.9849 5674.0234 1114.2773 5600.731 1114.2773 5510.3125 C 1114.2773 5419.894 1040.9849 5346.582 950.56641 5346.582 z M 2090.5664 5346.582 C 2000.1479 5346.582 1926.8555 5419.894 1926.8555 5510.3125 C 1926.8555 5600.731 2000.1479 5674.0234 2090.5664 5674.0234 C 2180.9849 5674.0234 2254.2773 5600.731 2254.2773 5510.3125 C 2254.2773 5419.894 2180.9849 5346.582 2090.5664 5346.582 z M 2470.5664 5346.582 C 2380.1479 5346.582 2306.8555 5419.894 2306.8555 5510.3125 C 2306.8555 5600.7309 2380.1479 5674.0234 2470.5664 5674.0234 C 2560.9849 5674.0234 2634.2773 5600.7309 2634.2773 5510.3125 C 2634.2773 5419.894 2560.9849 5346.582 2470.5664 5346.582 z M 3610.5664 5346.582 C 3520.148 5346.582 3446.8555 5419.8745 3446.8555 5510.293 C 3446.8555 5600.7115 3520.148 5674.0234 3610.5664 5674.0234 C 3700.9849 5674.0234 3774.2773 5600.7115 3774.2773 5510.293 C 3774.2773 5419.8745 3700.9849 5346.582 3610.5664 5346.582 z M 4370.5664 5346.582 C 4280.1479 5346.582 4206.8555 5419.8745 4206.8555 5510.293 C 4206.8555 5600.7115 4280.1479 5674.0234 4370.5664 5674.0234 C 4460.9848 5674.0234 4534.2773 5600.7115 4534.2773 5510.293 C 4534.2773 5419.8745 4460.9848 5346.582 4370.5664 5346.582 z M 5130.5664 5346.582 C 5040.1479 5346.582 4966.8555 5419.8746 4966.8555 5510.293 C 4966.8555 5600.7115 5040.1479 5674.0234 5130.5664 5674.0234 C 5220.9849 5674.0234 5294.2773 5600.7115 5294.2773 5510.293 C 5294.2773 5419.8746 5220.9849 5346.582 5130.5664 5346.582 z M 6270.5664 5346.582 C 6180.1479 5346.582 6106.8555 5419.8746 6106.8555 5510.293 C 6106.8555 5600.7115 6180.1479 5674.0234 6270.5664 5674.0234 C 6360.9849 5674.0234 6434.2773 5600.7115 6434.2773 5510.293 C 6434.2773 5419.8746 6360.9849 5346.582 6270.5664 5346.582 z M 6650.5664 5346.582 C 6560.1479 5346.582 6486.8555 5419.8745 6486.8555 5510.293 C 6486.8555 5600.7115 6560.1479 5674.0234 6650.5664 5674.0234 C 6740.9848 5674.0234 6814.2773 5600.7115 6814.2773 5510.293 C 6814.2773 5419.8745 6740.9848 5346.582 6650.5664 5346.582 z M 7410.5664 5346.582 C 7320.1479 5346.582 7246.8555 5419.8746 7246.8555 5510.293 C 7246.8555 5600.7115 7320.1479 5674.0234 7410.5664 5674.0234 C 7500.9848 5674.0234 7574.2773 5600.7115 7574.2773 5510.293 C 7574.2773 5419.8746 7500.9848 5346.582 7410.5664 5346.582 z M 7790.5664 5346.582 C 7700.1479 5346.582 7626.8555 5419.8745 7626.8555 5510.293 C 7626.8555 5600.7115 7700.1479 5674.0234 7790.5664 5674.0234 C 7880.9848 5674.0234 7954.2773 5600.7115 7954.2773 5510.293 C 7954.2773 5419.8745 7880.9848 5346.582 7790.5664 5346.582 z M 8170.5664 5346.582 C 8080.148 5346.582 8006.8555 5419.8745 8006.8555 5510.293 C 8006.8555 5600.7115 8080.148 5674.0234 8170.5664 5674.0234 C 8260.9849 5674.0234 8334.2773 5600.7115 8334.2773 5510.293 C 8334.2773 5419.8745 8260.9849 5346.582 8170.5664 5346.582 z M 9690.5664 5346.582 C 9600.1479 5346.582 9526.8555 5419.8746 9526.8555 5510.293 C 9526.8555 5600.7115 9600.1479 5674.0234 9690.5664 5674.0234 C 9780.9849 5674.0234 9854.2773 5600.7115 9854.2773 5510.293 C 9854.2773 5419.8746 9780.9849 5346.582 9690.5664 5346.582 z M 950.56641 5726.582 C 860.14791 5726.582 786.85547 5799.894 786.85547 5890.3125 C 786.85547 5980.731 860.14791 6054.0234 950.56641 6054.0234 C 1040.9849 6054.0234 1114.2773 5980.731 1114.2773 5890.3125 C 1114.2773 5799.894 1040.9849 5726.582 950.56641 5726.582 z M 1710.5664 5726.582 C 1620.1479 5726.582 1546.8555 5799.894 1546.8555 5890.3125 C 1546.8555 5980.731 1620.1479 6054.0234 1710.5664 6054.0234 C 1800.9849 6054.0234 1874.2773 5980.731 1874.2773 5890.3125 C 1874.2773 5799.894 1800.9849 5726.582 1710.5664 5726.582 z M 2470.5664 5726.582 C 2380.1479 5726.582 2306.8555 5799.894 2306.8555 5890.3125 C 2306.8555 5980.731 2380.1479 6054.0234 2470.5664 6054.0234 C 2560.9849 6054.0234 2634.2773 5980.731 2634.2773 5890.3125 C 2634.2773 5799.894 2560.9849 5726.582 2470.5664 5726.582 z M 2850.5664 5726.582 C 2760.1479 5726.582 2686.8555 5799.894 2686.8555 5890.3125 C 2686.8555 5980.731 2760.1479 6054.0234 2850.5664 6054.0234 C 2940.9849 6054.0234 3014.2773 5980.731 3014.2773 5890.3125 C 3014.2773 5799.894 2940.9849 5726.582 2850.5664 5726.582 z M 3230.5664 5726.582 C 3140.1479 5726.582 3066.8555 5799.8745 3066.8555 5890.293 C 3066.8555 5980.7115 3140.1479 6054.0234 3230.5664 6054.0234 C 3320.9848 6054.0234 3394.2773 5980.7115 3394.2773 5890.293 C 3394.2773 5799.8745 3320.9848 5726.582 3230.5664 5726.582 z M 5130.5664 5726.582 C 5040.148 5726.582 4966.8555 5799.8746 4966.8555 5890.293 C 4966.8555 5980.7115 5040.148 6054.0234 5130.5664 6054.0234 C 5220.9849 6054.0234 5294.2773 5980.7115 5294.2773 5890.293 C 5294.2773 5799.8746 5220.9849 5726.582 5130.5664 5726.582 z M 5510.5664 5726.582 C 5420.148 5726.582 5346.8555 5799.8745 5346.8555 5890.293 C 5346.8555 5980.7115 5420.148 6054.0234 5510.5664 6054.0234 C 5600.9849 6054.0234 5674.2773 5980.7115 5674.2773 5890.293 C 5674.2773 5799.8745 5600.9849 5726.582 5510.5664 5726.582 z M 7030.5664 5726.582 C 6940.148 5726.582 6866.8555 5799.8745 6866.8555 5890.293 C 6866.8555 5980.7114 6940.148 6054.0234 7030.5664 6054.0234 C 7120.9849 6054.0234 7194.2773 5980.7114 7194.2773 5890.293 C 7194.2773 5799.8745 7120.9849 5726.582 7030.5664 5726.582 z M 8170.5664 5726.582 C 8080.1479 5726.582 8006.8555 5799.8745 8006.8555 5890.293 C 8006.8555 5980.7115 8080.1479 6054.0234 8170.5664 6054.0234 C 8260.9849 6054.0234 8334.2773 5980.7115 8334.2773 5890.293 C 8334.2773 5799.8745 8260.9849 5726.582 8170.5664 5726.582 z M 8930.5664 5726.582 C 8840.1479 5726.582 8766.8555 5799.8745 8766.8555 5890.293 C 8766.8555 5980.7114 8840.1479 6054.0234 8930.5664 6054.0234 C 9020.9849 6054.0234 9094.2773 5980.7114 9094.2773 5890.293 C 9094.2773 5799.8745 9020.9849 5726.582 8930.5664 5726.582 z M 9310.5664 5726.582 C 9220.1479 5726.582 9146.8555 5799.8746 9146.8555 5890.293 C 9146.8555 5980.7115 9220.1479 6054.0234 9310.5664 6054.0234 C 9400.9849 6054.0234 9474.2773 5980.7115 9474.2773 5890.293 C 9474.2773 5799.8746 9400.9849 5726.582 9310.5664 5726.582 z M 570.56641 6106.582 C 480.14791 6106.582 406.85547 6179.894 406.85547 6270.3125 C 406.85547 6360.731 480.14791 6434.0234 570.56641 6434.0234 C 660.98491 6434.0234 734.27734 6360.731 734.27734 6270.3125 C 734.27734 6179.894 660.98491 6106.582 570.56641 6106.582 z M 1330.5664 6106.582 C 1240.1479 6106.582 1166.8555 6179.8941 1166.8555 6270.3125 C 1166.8555 6360.731 1240.1479 6434.0234 1330.5664 6434.0234 C 1420.9849 6434.0234 1494.2773 6360.731 1494.2773 6270.3125 C 1494.2773 6179.8941 1420.9849 6106.582 1330.5664 6106.582 z M 1710.5664 6106.582 C 1620.1479 6106.582 1546.8555 6179.894 1546.8555 6270.3125 C 1546.8555 6360.731 1620.1479 6434.0234 1710.5664 6434.0234 C 1800.9848 6434.0234 1874.2773 6360.731 1874.2773 6270.3125 C 1874.2773 6179.894 1800.9848 6106.582 1710.5664 6106.582 z M 3230.5664 6106.582 C 3140.1479 6106.582 3066.8555 6179.8745 3066.8555 6270.293 C 3066.8555 6360.7115 3140.1479 6434.0234 3230.5664 6434.0234 C 3320.9849 6434.0234 3394.2773 6360.7115 3394.2773 6270.293 C 3394.2773 6179.8745 3320.9849 6106.582 3230.5664 6106.582 z M 4370.5664 6106.582 C 4280.1479 6106.582 4206.8555 6179.8745 4206.8555 6270.293 C 4206.8555 6360.7115 4280.1479 6434.0234 4370.5664 6434.0234 C 4460.9849 6434.0234 4534.2773 6360.7115 4534.2773 6270.293 C 4534.2773 6179.8745 4460.9849 6106.582 4370.5664 6106.582 z M 6270.5664 6106.582 C 6180.1479 6106.582 6106.8555 6179.8746 6106.8555 6270.293 C 6106.8555 6360.7115 6180.1479 6434.0234 6270.5664 6434.0234 C 6360.9849 6434.0234 6434.2773 6360.7115 6434.2773 6270.293 C 6434.2773 6179.8746 6360.9849 6106.582 6270.5664 6106.582 z M 7030.5664 6106.582 C 6940.1479 6106.582 6866.8555 6179.8745 6866.8555 6270.293 C 6866.8555 6360.7114 6940.1479 6434.0234 7030.5664 6434.0234 C 7120.9849 6434.0234 7194.2773 6360.7114 7194.2773 6270.293 C 7194.2773 6179.8745 7120.9849 6106.582 7030.5664 6106.582 z M 7790.5664 6106.582 C 7700.1479 6106.582 7626.8555 6179.8746 7626.8555 6270.293 C 7626.8555 6360.7115 7700.1479 6434.0234 7790.5664 6434.0234 C 7880.9849 6434.0234 7954.2773 6360.7115 7954.2773 6270.293 C 7954.2773 6179.8746 7880.9849 6106.582 7790.5664 6106.582 z M 8170.5664 6106.582 C 8080.1479 6106.582 8006.8555 6179.8745 8006.8555 6270.293 C 8006.8555 6360.7115 8080.1479 6434.0234 8170.5664 6434.0234 C 8260.9849 6434.0234 8334.2773 6360.7115 8334.2773 6270.293 C 8334.2773 6179.8745 8260.9849 6106.582 8170.5664 6106.582 z M 9690.5664 6106.582 C 9600.1479 6106.582 9526.8555 6179.8746 9526.8555 6270.293 C 9526.8555 6360.7115 9600.1479 6434.0234 9690.5664 6434.0234 C 9780.9848 6434.0234 9854.2773 6360.7115 9854.2773 6270.293 C 9854.2773 6179.8746 9780.9848 6106.582 9690.5664 6106.582 z M 2090.5664 6486.582 C 2000.1479 6486.582 1926.8555 6559.894 1926.8555 6650.3125 C 1926.8555 6740.7309 2000.1479 6814.0234 2090.5664 6814.0234 C 2180.9849 6814.0234 2254.2773 6740.7309 2254.2773 6650.3125 C 2254.2773 6559.894 2180.9849 6486.582 2090.5664 6486.582 z M 2470.5664 6486.582 C 2380.1479 6486.582 2306.8555 6559.8745 2306.8555 6650.293 C 2306.8555 6740.7115 2380.1479 6814.0234 2470.5664 6814.0234 C 2560.9849 6814.0234 2634.2773 6740.7115 2634.2773 6650.293 C 2634.2773 6559.8745 2560.9849 6486.582 2470.5664 6486.582 z M 2850.5664 6486.582 C 2760.148 6486.582 2686.8555 6559.8745 2686.8555 6650.293 C 2686.8555 6740.7115 2760.148 6814.0234 2850.5664 6814.0234 C 2940.9849 6814.0234 3014.2773 6740.7115 3014.2773 6650.293 C 3014.2773 6559.8745 2940.9849 6486.582 2850.5664 6486.582 z M 5510.5664 6486.582 C 5420.1479 6486.582 5346.8555 6559.8745 5346.8555 6650.293 C 5346.8555 6740.7115 5420.1479 6814.0234 5510.5664 6814.0234 C 5600.9849 6814.0234 5674.2773 6740.7115 5674.2773 6650.293 C 5674.2773 6559.8745 5600.9849 6486.582 5510.5664 6486.582 z M 6270.5664 6486.582 C 6180.1479 6486.582 6106.8555 6559.8746 6106.8555 6650.293 C 6106.8555 6740.7115 6180.1479 6814.0234 6270.5664 6814.0234 C 6360.9849 6814.0234 6434.2773 6740.7115 6434.2773 6650.293 C 6434.2773 6559.8746 6360.9849 6486.582 6270.5664 6486.582 z M 8550.5664 6486.582 C 8460.1479 6486.582 8386.8555 6559.8745 8386.8555 6650.293 C 8386.8555 6740.7115 8460.1479 6814.0234 8550.5664 6814.0234 C 8640.9848 6814.0234 8714.2773 6740.7115 8714.2773 6650.293 C 8714.2773 6559.8745 8640.9848 6486.582 8550.5664 6486.582 z M 8930.5664 6486.582 C 8840.1479 6486.582 8766.8555 6559.8745 8766.8555 6650.293 C 8766.8555 6740.7114 8840.1479 6814.0234 8930.5664 6814.0234 C 9020.9848 6814.0234 9094.2773 6740.7114 9094.2773 6650.293 C 9094.2773 6559.8745 9020.9848 6486.582 8930.5664 6486.582 z M 9310.5664 6486.582 C 9220.1479 6486.582 9146.8555 6559.8745 9146.8555 6650.293 C 9146.8555 6740.7114 9220.1479 6814.0234 9310.5664 6814.0234 C 9400.9848 6814.0234 9474.2773 6740.7114 9474.2773 6650.293 C 9474.2773 6559.8745 9400.9848 6486.582 9310.5664 6486.582 z M 9690.5664 6486.582 C 9600.1479 6486.582 9526.8555 6559.8746 9526.8555 6650.293 C 9526.8555 6740.7115 9600.1479 6814.0234 9690.5664 6814.0234 C 9780.9848 6814.0234 9854.2773 6740.7115 9854.2773 6650.293 C 9854.2773 6559.8746 9780.9848 6486.582 9690.5664 6486.582 z M 3610.5664 6866.582 C 3520.1479 6866.582 3446.8555 6939.8745 3446.8555 7030.293 C 3446.8555 7120.7115 3520.1479 7194.0234 3610.5664 7194.0234 C 3700.9849 7194.0234 3774.2773 7120.7115 3774.2773 7030.293 C 3774.2773 6939.8745 3700.9849 6866.582 3610.5664 6866.582 z M 3990.5664 6866.582 C 3900.1479 6866.582 3826.8555 6939.8745 3826.8555 7030.293 C 3826.8555 7120.7115 3900.1479 7194.0234 3990.5664 7194.0234 C 4080.9849 7194.0234 4154.2773 7120.7115 4154.2773 7030.293 C 4154.2773 6939.8745 4080.9849 6866.582 3990.5664 6866.582 z M 4750.5664 6866.582 C 4660.1479 6866.582 4586.8555 6939.8746 4586.8555 7030.293 C 4586.8555 7120.7115 4660.1479 7194.0234 4750.5664 7194.0234 C 4840.9849 7194.0234 4914.2773 7120.7115 4914.2773 7030.293 C 4914.2773 6939.8746 4840.9849 6866.582 4750.5664 6866.582 z M 5130.5664 6866.582 C 5040.148 6866.582 4966.8555 6939.8745 4966.8555 7030.293 C 4966.8555 7120.7115 5040.148 7194.0234 5130.5664 7194.0234 C 5220.9849 7194.0234 5294.2773 7120.7115 5294.2773 7030.293 C 5294.2773 6939.8745 5220.9849 6866.582 5130.5664 6866.582 z M 5510.5664 6866.582 C 5420.148 6866.582 5346.8555 6939.8745 5346.8555 7030.293 C 5346.8555 7120.7115 5420.148 7194.0234 5510.5664 7194.0234 C 5600.9849 7194.0234 5674.2773 7120.7115 5674.2773 7030.293 C 5674.2773 6939.8745 5600.9849 6866.582 5510.5664 6866.582 z M 8930.5664 6866.582 C 8840.148 6866.582 8766.8555 6939.8745 8766.8555 7030.293 C 8766.8555 7120.7115 8840.148 7194.0234 8930.5664 7194.0234 C 9020.9849 7194.0234 9094.2773 7120.7115 9094.2773 7030.293 C 9094.2773 6939.8745 9020.9849 6866.582 8930.5664 6866.582 z M 9690.5664 6866.582 C 9600.148 6866.582 9526.8555 6939.8746 9526.8555 7030.293 C 9526.8555 7120.7115 9600.148 7194.0234 9690.5664 7194.0234 C 9780.9849 7194.0234 9854.2773 7120.7115 9854.2773 7030.293 C 9854.2773 6939.8746 9780.9849 6866.582 9690.5664 6866.582 z M 3990.5664 7246.582 C 3900.1479 7246.582 3826.8555 7319.8745 3826.8555 7410.293 C 3826.8555 7500.7115 3900.1479 7574.0234 3990.5664 7574.0234 C 4080.9848 7574.0234 4154.2773 7500.7115 4154.2773 7410.293 C 4154.2773 7319.8745 4080.9848 7246.582 3990.5664 7246.582 z M 5130.5664 7246.582 C 5040.1479 7246.582 4966.8555 7319.8745 4966.8555 7410.293 C 4966.8555 7500.7115 5040.1479 7574.0234 5130.5664 7574.0234 C 5220.9849 7574.0234 5294.2773 7500.7115 5294.2773 7410.293 C 5294.2773 7319.8745 5220.9849 7246.582 5130.5664 7246.582 z M 8930.5664 7246.582 C 8840.148 7246.582 8766.8555 7319.8745 8766.8555 7410.293 C 8766.8555 7500.7115 8840.148 7574.0234 8930.5664 7574.0234 C 9020.9849 7574.0234 9094.2773 7500.7115 9094.2773 7410.293 C 9094.2773 7319.8745 9020.9849 7246.582 8930.5664 7246.582 z M 9310.5664 7246.582 C 9220.148 7246.582 9146.8555 7319.8745 9146.8555 7410.293 C 9146.8555 7500.7114 9220.148 7574.0234 9310.5664 7574.0234 C 9400.9849 7574.0234 9474.2773 7500.7114 9474.2773 7410.293 C 9474.2773 7319.8745 9400.9849 7246.582 9310.5664 7246.582 z M 9690.5664 7246.582 C 9600.148 7246.582 9526.8555 7319.8745 9526.8555 7410.293 C 9526.8555 7500.7114 9600.148 7574.0234 9690.5664 7574.0234 C 9780.9849 7574.0234 9854.2773 7500.7114 9854.2773 7410.293 C 9854.2773 7319.8745 9780.9849 7246.582 9690.5664 7246.582 z M 5130.5664 7626.582 C 5040.1479 7626.582 4966.8555 7699.8745 4966.8555 7790.293 C 4966.8555 7880.7115 5040.1479 7954.0234 5130.5664 7954.0234 C 5220.9849 7954.0234 5294.2773 7880.7115 5294.2773 7790.293 C 5294.2773 7699.8745 5220.9849 7626.582 5130.5664 7626.582 z M 6270.5664 7626.582 C 6180.1479 7626.582 6106.8555 7699.8745 6106.8555 7790.293 C 6106.8555 7880.7115 6180.1479 7954.0234 6270.5664 7954.0234 C 6360.9849 7954.0234 6434.2773 7880.7115 6434.2773 7790.293 C 6434.2773 7699.8745 6360.9849 7626.582 6270.5664 7626.582 z M 9310.5664 7626.582 C 9220.1479 7626.582 9146.8555 7699.8745 9146.8555 7790.293 C 9146.8555 7880.7114 9220.1479 7954.0234 9310.5664 7954.0234 C 9400.9849 7954.0234 9474.2773 7880.7114 9474.2773 7790.293 C 9474.2773 7699.8745 9400.9849 7626.582 9310.5664 7626.582 z M 3990.5664 8006.582 C 3900.1479 8006.582 3826.8555 8079.8746 3826.8555 8170.293 C 3826.8555 8260.7115 3900.1479 8334.0234 3990.5664 8334.0234 C 4080.9849 8334.0234 4154.2773 8260.7115 4154.2773 8170.293 C 4154.2773 8079.8746 4080.9849 8006.582 3990.5664 8006.582 z M 4370.5664 8006.582 C 4280.148 8006.582 4206.8555 8079.8745 4206.8555 8170.293 C 4206.8555 8260.7115 4280.148 8334.0234 4370.5664 8334.0234 C 4460.9849 8334.0234 4534.2773 8260.7115 4534.2773 8170.293 C 4534.2773 8079.8745 4460.9849 8006.582 4370.5664 8006.582 z M 4750.5664 8006.582 C 4660.148 8006.582 4586.8555 8079.8745 4586.8555 8170.293 C 4586.8555 8260.7115 4660.148 8334.0234 4750.5664 8334.0234 C 4840.9849 8334.0234 4914.2773 8260.7115 4914.2773 8170.293 C 4914.2773 8079.8745 4840.9849 8006.582 4750.5664 8006.582 z M 5890.5664 8006.582 C 5800.1479 8006.582 5726.8555 8079.8746 5726.8555 8170.293 C 5726.8555 8260.7115 5800.1479 8334.0234 5890.5664 8334.0234 C 5980.9849 8334.0234 6054.2773 8260.7115 6054.2773 8170.293 C 6054.2773 8079.8746 5980.9849 8006.582 5890.5664 8006.582 z M 8550.5664 8006.582 C 8460.1479 8006.582 8386.8555 8079.8745 8386.8555 8170.293 C 8386.8555 8260.7115 8460.1479 8334.0234 8550.5664 8334.0234 C 8640.9849 8334.0234 8714.2773 8260.7115 8714.2773 8170.293 C 8714.2773 8079.8745 8640.9849 8006.582 8550.5664 8006.582 z M 9310.5664 8006.582 C 9220.1479 8006.582 9146.8555 8079.8745 9146.8555 8170.293 C 9146.8555 8260.7114 9220.1479 8334.0234 9310.5664 8334.0234 C 9400.9849 8334.0234 9474.2773 8260.7114 9474.2773 8170.293 C 9474.2773 8079.8745 9400.9849 8006.582 9310.5664 8006.582 z M 9690.5664 8006.582 C 9600.1479 8006.582 9526.8555 8079.8745 9526.8555 8170.293 C 9526.8555 8260.7114 9600.1479 8334.0234 9690.5664 8334.0234 C 9780.9849 8334.0234 9854.2773 8260.7114 9854.2773 8170.293 C 9854.2773 8079.8745 9780.9849 8006.582 9690.5664 8006.582 z M 3610.5664 8386.582 C 3520.1479 8386.582 3446.8555 8459.8746 3446.8555 8550.293 C 3446.8555 8640.7115 3520.1479 8714.0234 3610.5664 8714.0234 C 3700.9849 8714.0234 3774.2773 8640.7115 3774.2773 8550.293 C 3774.2773 8459.8746 3700.9849 8386.582 3610.5664 8386.582 z M 4750.5664 8386.582 C 4660.1479 8386.582 4586.8555 8459.8745 4586.8555 8550.293 C 4586.8555 8640.7115 4660.1479 8714.0234 4750.5664 8714.0234 C 4840.9849 8714.0234 4914.2773 8640.7115 4914.2773 8550.293 C 4914.2773 8459.8745 4840.9849 8386.582 4750.5664 8386.582 z M 5130.5664 8386.582 C 5040.148 8386.582 4966.8555 8459.8745 4966.8555 8550.293 C 4966.8555 8640.7114 5040.148 8714.0234 5130.5664 8714.0234 C 5220.9849 8714.0234 5294.2773 8640.7114 5294.2773 8550.293 C 5294.2773 8459.8745 5220.9849 8386.582 5130.5664 8386.582 z M 6270.5664 8386.582 C 6180.1479 8386.582 6106.8555 8459.8745 6106.8555 8550.293 C 6106.8555 8640.7115 6180.1479 8714.0234 6270.5664 8714.0234 C 6360.9848 8714.0234 6434.2773 8640.7115 6434.2773 8550.293 C 6434.2773 8459.8745 6360.9848 8386.582 6270.5664 8386.582 z M 7410.5664 8386.582 C 7320.1479 8386.582 7246.8555 8459.8745 7246.8555 8550.293 C 7246.8555 8640.7114 7320.1479 8714.0234 7410.5664 8714.0234 C 7500.9849 8714.0234 7574.2773 8640.7114 7574.2773 8550.293 C 7574.2773 8459.8745 7500.9849 8386.582 7410.5664 8386.582 z M 8170.5664 8386.582 C 8080.1479 8386.582 8006.8555 8459.8745 8006.8555 8550.293 C 8006.8555 8640.7115 8080.1479 8714.0234 8170.5664 8714.0234 C 8260.9849 8714.0234 8334.2773 8640.7115 8334.2773 8550.293 C 8334.2773 8459.8745 8260.9849 8386.582 8170.5664 8386.582 z M 8550.5664 8386.582 C 8460.1479 8386.582 8386.8555 8459.8745 8386.8555 8550.293 C 8386.8555 8640.7115 8460.1479 8714.0234 8550.5664 8714.0234 C 8640.9849 8714.0234 8714.2773 8640.7115 8714.2773 8550.293 C 8714.2773 8459.8745 8640.9849 8386.582 8550.5664 8386.582 z M 8930.5664 8386.582 C 8840.1479 8386.582 8766.8555 8459.8745 8766.8555 8550.293 C 8766.8555 8640.7115 8840.1479 8714.0234 8930.5664 8714.0234 C 9020.9849 8714.0234 9094.2773 8640.7115 9094.2773 8550.293 C 9094.2773 8459.8745 9020.9849 8386.582 8930.5664 8386.582 z M 9310.5664 8386.582 C 9220.1479 8386.582 9146.8555 8459.8745 9146.8555 8550.293 C 9146.8555 8640.7114 9220.1479 8714.0234 9310.5664 8714.0234 C 9400.9849 8714.0234 9474.2773 8640.7114 9474.2773 8550.293 C 9474.2773 8459.8745 9400.9849 8386.582 9310.5664 8386.582 z M 9690.5664 8386.582 C 9600.1479 8386.582 9526.8555 8459.8745 9526.8555 8550.293 C 9526.8555 8640.7114 9600.1479 8714.0234 9690.5664 8714.0234 C 9780.9849 8714.0234 9854.2773 8640.7114 9854.2773 8550.293 C 9854.2773 8459.8745 9780.9849 8386.582 9690.5664 8386.582 z M 3610.5664 8766.582 C 3520.1479 8766.582 3446.8555 8839.8745 3446.8555 8930.293 C 3446.8555 9020.7115 3520.1479 9094.0234 3610.5664 9094.0234 C 3700.9848 9094.0234 3774.2773 9020.7115 3774.2773 8930.293 C 3774.2773 8839.8745 3700.9848 8766.582 3610.5664 8766.582 z M 3990.5664 8766.582 C 3900.1479 8766.582 3826.8555 8839.8745 3826.8555 8930.293 C 3826.8555 9020.7115 3900.1479 9094.0234 3990.5664 9094.0234 C 4080.9849 9094.0234 4154.2773 9020.7115 4154.2773 8930.293 C 4154.2773 8839.8745 4080.9849 8766.582 3990.5664 8766.582 z M 4750.5664 8766.582 C 4660.1479 8766.582 4586.8555 8839.8745 4586.8555 8930.293 C 4586.8555 9020.7114 4660.1479 9094.0234 4750.5664 9094.0234 C 4840.9849 9094.0234 4914.2773 9020.7114 4914.2773 8930.293 C 4914.2773 8839.8745 4840.9849 8766.582 4750.5664 8766.582 z M 5130.5664 8766.582 C 5040.1479 8766.582 4966.8555 8839.8745 4966.8555 8930.293 C 4966.8555 9020.7114 5040.1479 9094.0234 5130.5664 9094.0234 C 5220.9849 9094.0234 5294.2773 9020.7114 5294.2773 8930.293 C 5294.2773 8839.8745 5220.9849 8766.582 5130.5664 8766.582 z M 5510.5664 8766.582 C 5420.148 8766.582 5346.8555 8839.8746 5346.8555 8930.293 C 5346.8555 9020.7115 5420.148 9094.0234 5510.5664 9094.0234 C 5600.9849 9094.0234 5674.2773 9020.7115 5674.2773 8930.293 C 5674.2773 8839.8746 5600.9849 8766.582 5510.5664 8766.582 z M 6650.5664 8766.582 C 6560.1479 8766.582 6486.8555 8839.8745 6486.8555 8930.293 C 6486.8555 9020.7115 6560.1479 9094.0234 6650.5664 9094.0234 C 6740.9848 9094.0234 6814.2773 9020.7115 6814.2773 8930.293 C 6814.2773 8839.8745 6740.9848 8766.582 6650.5664 8766.582 z M 7030.5664 8766.582 C 6940.1479 8766.582 6866.8555 8839.8745 6866.8555 8930.293 C 6866.8555 9020.7114 6940.1479 9094.0234 7030.5664 9094.0234 C 7120.9848 9094.0234 7194.2773 9020.7114 7194.2773 8930.293 C 7194.2773 8839.8745 7120.9848 8766.582 7030.5664 8766.582 z M 7410.5664 8766.582 C 7320.1479 8766.582 7246.8555 8839.8746 7246.8555 8930.293 C 7246.8555 9020.7115 7320.1479 9094.0234 7410.5664 9094.0234 C 7500.9848 9094.0234 7574.2773 9020.7115 7574.2773 8930.293 C 7574.2773 8839.8746 7500.9848 8766.582 7410.5664 8766.582 z M 8170.5664 8766.582 C 8080.1479 8766.582 8006.8555 8839.8745 8006.8555 8930.293 C 8006.8555 9020.7115 8080.1479 9094.0234 8170.5664 9094.0234 C 8260.9848 9094.0234 8334.2773 9020.7115 8334.2773 8930.293 C 8334.2773 8839.8745 8260.9848 8766.582 8170.5664 8766.582 z M 8930.5664 8766.582 C 8840.1479 8766.582 8766.8555 8839.8745 8766.8555 8930.293 C 8766.8555 9020.7115 8840.1479 9094.0234 8930.5664 9094.0234 C 9020.9848 9094.0234 9094.2773 9020.7115 9094.2773 8930.293 C 9094.2773 8839.8745 9020.9848 8766.582 8930.5664 8766.582 z M 9310.5664 8766.582 C 9220.1479 8766.582 9146.8555 8839.8745 9146.8555 8930.293 C 9146.8555 9020.7115 9220.1479 9094.0234 9310.5664 9094.0234 C 9400.9848 9094.0234 9474.2773 9020.7115 9474.2773 8930.293 C 9474.2773 8839.8745 9400.9848 8766.582 9310.5664 8766.582 z M 3610.5664 9146.582 C 3520.148 9146.582 3446.8555 9219.8745 3446.8555 9310.293 C 3446.8555 9400.7115 3520.148 9474.0234 3610.5664 9474.0234 C 3700.9849 9474.0234 3774.2773 9400.7115 3774.2773 9310.293 C 3774.2773 9219.8745 3700.9849 9146.582 3610.5664 9146.582 z M 3990.5664 9146.582 C 3900.1479 9146.582 3826.8555 9219.8745 3826.8555 9310.293 C 3826.8555 9400.7115 3900.1479 9474.0234 3990.5664 9474.0234 C 4080.9848 9474.0234 4154.2773 9400.7115 4154.2773 9310.293 C 4154.2773 9219.8745 4080.9848 9146.582 3990.5664 9146.582 z M 5130.5664 9146.582 C 5040.1479 9146.582 4966.8555 9219.8746 4966.8555 9310.293 C 4966.8555 9400.7115 5040.1479 9474.0234 5130.5664 9474.0234 C 5220.9849 9474.0234 5294.2773 9400.7115 5294.2773 9310.293 C 5294.2773 9219.8746 5220.9849 9146.582 5130.5664 9146.582 z M 5510.5664 9146.582 C 5420.1479 9146.582 5346.8555 9219.8745 5346.8555 9310.293 C 5346.8555 9400.7115 5420.1479 9474.0234 5510.5664 9474.0234 C 5600.9849 9474.0234 5674.2773 9400.7115 5674.2773 9310.293 C 5674.2773 9219.8745 5600.9849 9146.582 5510.5664 9146.582 z M 5890.5664 9146.582 C 5800.1479 9146.582 5726.8555 9219.8745 5726.8555 9310.293 C 5726.8555 9400.7115 5800.1479 9474.0234 5890.5664 9474.0234 C 5980.9849 9474.0234 6054.2773 9400.7115 6054.2773 9310.293 C 6054.2773 9219.8745 5980.9849 9146.582 5890.5664 9146.582 z M 7030.5664 9146.582 C 6940.148 9146.582 6866.8555 9219.8745 6866.8555 9310.293 C 6866.8555 9400.7114 6940.148 9474.0234 7030.5664 9474.0234 C 7120.9849 9474.0234 7194.2773 9400.7114 7194.2773 9310.293 C 7194.2773 9219.8745 7120.9849 9146.582 7030.5664 9146.582 z M 7410.5664 9146.582 C 7320.148 9146.582 7246.8555 9219.8746 7246.8555 9310.293 C 7246.8555 9400.7115 7320.148 9474.0234 7410.5664 9474.0234 C 7500.9849 9474.0234 7574.2773 9400.7115 7574.2773 9310.293 C 7574.2773 9219.8746 7500.9849 9146.582 7410.5664 9146.582 z M 8170.5664 9146.582 C 8080.148 9146.582 8006.8555 9219.8745 8006.8555 9310.293 C 8006.8555 9400.7115 8080.148 9474.0234 8170.5664 9474.0234 C 8260.9849 9474.0234 8334.2773 9400.7115 8334.2773 9310.293 C 8334.2773 9219.8745 8260.9849 9146.582 8170.5664 9146.582 z M 8930.5664 9146.582 C 8840.1479 9146.582 8766.8555 9219.8745 8766.8555 9310.293 C 8766.8555 9400.7115 8840.1479 9474.0234 8930.5664 9474.0234 C 9020.9848 9474.0234 9094.2773 9400.7115 9094.2773 9310.293 C 9094.2773 9219.8745 9020.9848 9146.582 8930.5664 9146.582 z M 3610.5664 9526.582 C 3520.1479 9526.582 3446.8555 9599.8745 3446.8555 9690.293 C 3446.8555 9780.7115 3520.1479 9854.0234 3610.5664 9854.0234 C 3700.9849 9854.0234 3774.2773 9780.7115 3774.2773 9690.293 C 3774.2773 9599.8745 3700.9849 9526.582 3610.5664 9526.582 z M 3990.5664 9526.582 C 3900.148 9526.582 3826.8555 9599.8745 3826.8555 9690.293 C 3826.8555 9780.7115 3900.148 9854.0234 3990.5664 9854.0234 C 4080.9849 9854.0234 4154.2773 9780.7115 4154.2773 9690.293 C 4154.2773 9599.8745 4080.9849 9526.582 3990.5664 9526.582 z M 4370.5664 9526.582 C 4280.1479 9526.582 4206.8555 9599.8745 4206.8555 9690.293 C 4206.8555 9780.7114 4280.1479 9854.0234 4370.5664 9854.0234 C 4460.9848 9854.0234 4534.2773 9780.7114 4534.2773 9690.293 C 4534.2773 9599.8745 4460.9848 9526.582 4370.5664 9526.582 z M 5130.5664 9526.582 C 5040.1479 9526.582 4966.8555 9599.8745 4966.8555 9690.293 C 4966.8555 9780.7115 5040.1479 9854.0234 5130.5664 9854.0234 C 5220.9849 9854.0234 5294.2773 9780.7115 5294.2773 9690.293 C 5294.2773 9599.8745 5220.9849 9526.582 5130.5664 9526.582 z M 5510.5664 9526.582 C 5420.1479 9526.582 5346.8555 9599.8745 5346.8555 9690.293 C 5346.8555 9780.7115 5420.1479 9854.0234 5510.5664 9854.0234 C 5600.9849 9854.0234 5674.2773 9780.7115 5674.2773 9690.293 C 5674.2773 9599.8745 5600.9849 9526.582 5510.5664 9526.582 z M 5890.5664 9526.582 C 5800.1479 9526.582 5726.8555 9599.8745 5726.8555 9690.293 C 5726.8555 9780.7115 5800.1479 9854.0234 5890.5664 9854.0234 C 5980.9849 9854.0234 6054.2773 9780.7115 6054.2773 9690.293 C 6054.2773 9599.8745 5980.9849 9526.582 5890.5664 9526.582 z M 7790.5664 9526.582 C 7700.148 9526.582 7626.8555 9599.8746 7626.8555 9690.293 C 7626.8555 9780.7115 7700.148 9854.0234 7790.5664 9854.0234 C 7880.9849 9854.0234 7954.2773 9780.7115 7954.2773 9690.293 C 7954.2773 9599.8746 7880.9849 9526.582 7790.5664 9526.582 z M 8170.5664 9526.582 C 8080.148 9526.582 8006.8555 9599.8745 8006.8555 9690.293 C 8006.8555 9780.7115 8080.148 9854.0234 8170.5664 9854.0234 C 8260.9849 9854.0234 8334.2773 9780.7115 8334.2773 9690.293 C 8334.2773 9599.8745 8260.9849 9526.582 8170.5664 9526.582 z M 8550.5664 9526.582 C 8460.148 9526.582 8386.8555 9599.8745 8386.8555 9690.293 C 8386.8555 9780.7115 8460.148 9854.0234 8550.5664 9854.0234 C 8640.9849 9854.0234 8714.2773 9780.7115 8714.2773 9690.293 C 8714.2773 9599.8745 8640.9849 9526.582 8550.5664 9526.582 z M 8930.5664 9526.582 C 8840.148 9526.582 8766.8555 9599.8745 8766.8555 9690.293 C 8766.8555 9780.7115 8840.148 9854.0234 8930.5664 9854.0234 C 9020.9849 9854.0234 9094.2773 9780.7115 9094.2773 9690.293 C 9094.2773 9599.8745 9020.9849 9526.582 8930.5664 9526.582 z M 9310.5664 9526.582 C 9220.148 9526.582 9146.8555 9599.8745 9146.8555 9690.293 C 9146.8555 9780.7115 9220.148 9854.0234 9310.5664 9854.0234 C 9400.9849 9854.0234 9474.2773 9780.7115 9474.2773 9690.293 C 9474.2773 9599.8745 9400.9849 9526.582 9310.5664 9526.582 z M 9690.5664 9526.582 C 9600.148 9526.582 9526.8555 9599.8745 9526.8555 9690.293 C 9526.8555 9780.7114 9600.148 9854.0234 9690.5664 9854.0234 C 9780.9849 9854.0234 9854.2773 9780.7114 9854.2773 9690.293 C 9854.2773 9599.8745 9780.9849 9526.582 9690.5664 9526.582 z " />
  <path
     style="fill:#106000;fill-opacity:1"
     d="m 1373,9110 c -92,-19 -165,-77 -205,-165 -23,-49 -23,-56 -23,-395 0,-329 1,-347 21,-390 47,-101 117,-153 232,-170 47,-8 179,-10 365,-8 281,3 294,4 344,27 61,27 116,83 147,150 20,44 21,60 21,391 0,345 0,345 -28,402 -32,64 -80,111 -146,142 -43,20 -64,21 -366,23 -176,1 -339,-2 -362,-7 z m -413,760 c -209,-26 -408,-166 -499,-352 -79,-161 -76,-120 -76,-968 0,-699 1,-760 18,-820 68,-243 244,-419 487,-487 60,-17 121,-18 820,-18 848,0 807,-3 968,76 141,69 261,206 318,364 42,115 46,204 42,950 -4,776 -2,746 -73,890 -85,172 -235,295 -430,352 -54,15 -129,17 -785,19 -399,1 -754,-2 -790,-6 z m 1431,-412 c 124,-61 210,-160 249,-287 19,-59 20,-95 20,-620 0,-479 -2,-565 -16,-612 -43,-147 -161,-268 -311,-318 -60,-20 -82,-21 -621,-21 -484,0 -566,2 -613,16 -82,25 -127,51 -192,113 -69,65 -102,118 -128,202 -18,56 -19,100 -19,618 0,479 2,565 16,612 42,145 156,263 303,315 66,24 66,24 652,21 585,-2 585,-2 660,-39 z"
     id="path12861" />
  <path
     style="fill:#f04030;fill-opacity:1"
     d="m 7285,7591 c -50,-21 -60,-47 -63,-165 -5,-184 23,-211 216,-204 96,3 104,5 130,31 26,26 27,32 30,145 3,133 -4,158 -58,184 -27,14 -59,18 -135,17 -55,0 -109,-4 -120,-8 z m -420,759 c -181,-29 -324,-152 -381,-330 -16,-49 -18,-110 -22,-548 -2,-310 0,-525 7,-580 20,-168 115,-303 263,-376 107,-53 176,-58 747,-54 461,4 489,5 548,25 148,49 250,151 305,305 23,63 23,65 23,618 0,555 0,555 -23,619 -29,80 -81,160 -136,207 -57,50 -168,101 -246,114 -76,12 -1008,12 -1085,0 z m 960,-395 c 50,-25 105,-80 130,-130 19,-37 20,-65 23,-400 2,-319 1,-365 -14,-404 -23,-60 -88,-129 -149,-157 -49,-24 -54,-24 -405,-24 -351,0 -356,0 -405,24 -64,29 -112,77 -141,141 -24,49 -24,54 -24,405 0,353 0,355 24,405 29,61 85,117 146,144 43,20 60,21 410,18 340,-2 368,-3 405,-22 z"
     id="path12859" />
  <path
     id="path12857"
     style="fill:#c03020;fill-opacity:1.0"
     d="m 1373,2270 c -46,-9.5 -87.25,-28.75 -122,-56.625 C 1216.25,2185.5 1188,2149 1168,2105 c -11.5,-24.5 -17.25,-38.5 -20.125,-88.75 C 1145,1966 1145,1879.5 1145,1710 c 0,-164.5 0.25,-251.25 3,-302.25 2.75,-51 8,-66.25 18,-87.75 23.5,-50.5 52.75,-88.75 90.5,-116.5 37.75,-27.75 84,-45 141.5,-53.5 23.5,-4 68.25,-6.5 130.375,-7.75 C 1590.5,1141 1670,1141 1763,1142 c 140.5,1.5 214,2.5 258.625,6 44.625,3.5 60.375,9.5 85.375,21 30.5,13.5 59.5,34.25 84.75,60 25.25,25.75 46.75,56.5 62.25,90 10,22 15.25,37 18,87.875 2.75,50.875 3,137.625 3,303.125 0,172.5 0,258.75 -3.5,309 -3.5,50.25 -10.5,64.5 -24.5,93 -16,32 -36,59.75 -60.25,83.375 C 2162.5,2219 2134,2238.5 2101,2254 c -21.5,10 -37.5,15.25 -85.875,18.25 -48.375,3 -129.125,3.75 -280.125,4.75 -88,0.5 -172.75,0 -238.375,-1.25 C 1431,2274.5 1384.5,2272.5 1373,2270 Z M 960,3030 C 855.5,3017 753.5,2975.5 666.25,2914 579,2852.5 506.5,2771 461,2678 421.5,2597.5 402.5,2567.5 393.375,2451.625 384.25,2335.75 385,2134 385,1710 c 0,-349.5 0.25,-539.5 2.625,-649.625 C 390,950.25 394.5,920 403,890 437,768.5 498,663.75 580.875,580.875 663.75,498 768.5,437 890,403 920,394.5 950.25,390 1060.375,387.625 1170.5,385.25 1360.5,385 1710,385 c 424,0 625.75,-0.75 741.625,8.375 C 2567.5,402.5 2597.5,421.5 2678,461 c 70.5,34.5 135.75,86 190.5,148.625 54.75,62.625 99,136.375 127.5,215.375 21,57.5 32.5,108.5 38.25,238.375 C 3040,1193.25 3040,1402 3038,1775 c -2,388 -2.5,574.5 -11.375,682 -8.875,107.5 -26.125,136 -61.625,208 -42.5,86 -101.25,159.75 -173.75,219.125 C 2718.75,2943.5 2632.5,2988.5 2535,3017 c -27,7.5 -59.25,11.75 -166.75,14.375 C 2260.75,3034 2078,3035 1750,3036 c -199.5,0.5 -388,0 -531.125,-1.125 C 1075.75,3033.75 978,3032 960,3030 Z m 1431,-412 c 62,-30.5 114.5,-70.5 156.375,-118.75 C 2589.25,2451 2620.5,2394.5 2640,2331 c 9.5,-29.5 14.5,-53.25 17.125,-135.25 2.625,-82 2.875,-222.25 2.875,-484.75 0,-239.5 -0.5,-380.75 -2.75,-468 C 2655,1155.75 2651,1122.5 2644,1099 2622.5,1025.5 2582.25,958.5 2528.625,903.625 2475,848.75 2408,806 2333,781 2303,771 2282.5,765.75 2202.125,763 2121.75,760.25 1981.5,760 1712,760 c -242,0 -383.5,0.5 -470.375,2.75 C 1154.75,765 1122.5,769 1099,776 1058,788.5 1026.25,801.25 996.625,818.625 967,836 939.5,858 907,889 872.5,921.5 847,951 826.875,982.875 806.75,1014.75 792,1049 779,1091 c -9,28 -13.75,53 -16.25,135.75 C 760.25,1309.5 760,1450 760,1709 c 0,239.5 0.5,380.75 2.75,468 2.25,87.25 6.25,120.5 13.25,144 21,72.5 60,138.25 112.125,192.375 C 940.25,2567.5 1005.5,2610 1079,2636 c 33,12 49.5,18 131,20.625 81.5,2.625 228,1.875 521,0.375 292.5,-1 438.75,-1.5 521.25,-6.375 82.5,-4.875 101.25,-14.125 138.75,-32.625 z" />
  <path
     style="fill:#2090f0;fill-opacity:1"
     d="m 8213,2270 c -92,-19 -165,-77 -205,-165 -23,-49 -23,-56 -23,-395 0,-329 1,-347 21,-390 47,-101 117,-153 232,-170 47,-8 179,-10 365,-8 281,3 294,4 344,27 61,27 116,83 147,150 20,44 21,60 21,391 0,345 0,345 -28,402 -32,64 -80,111 -146,142 -43,20 -64,21 -366,23 -176,1 -339,-2 -362,-7 z m -413,760 c -209,-26 -408,-166 -499,-352 -79,-161 -76,-120 -76,-968 0,-699 1,-760 18,-820 68,-243 244,-419 487,-487 60,-17 121,-18 820,-18 848,0 807,-3 968,76 141,69 261,206 318,364 42,115 46,204 42,950 -4,776 -2,746 -73,890 -85,172 -235,295 -430,352 -54,15 -129,17 -785,19 -399,1 -754,-2 -790,-6 z m 1431,-412 c 124,-61 210,-160 249,-287 19,-59 20,-95 20,-620 0,-479 -2,-565 -16,-612 -43,-147 -161,-268 -311,-318 -60,-20 -82,-21 -621,-21 -484,0 -566,2 -613,16 -82,25 -127,51 -192,113 -69,65 -102,118 -128,202 -18,56 -19,100 -19,618 0,479 2,565 16,612 42,145 156,263 303,315 66,24 66,24 652,21 585,-2 585,-2 660,-39 z"
     id="path5852" />
</svg>
